<?xml version="1.0" encoding="utf-8"?>
<!-- Generator: Adobe Illustrator 25.0.0, SVG Export Plug-In . SVG Version: 6.00 Build 0)  -->
<svg version="1.1" id="Layer_1" xmlns="http://www.w3.org/2000/svg" xmlns:xlink="http://www.w3.org/1999/xlink" x="0px" y="0px"
	 viewBox="0 0 1024 1024" style="enable-background:new 0 0 1024 1024;" xml:space="preserve">
<style type="text/css">
	.st0{fill:#FFFFFF;}
</style>
<g>
	<path class="st0" d="M142.6,710.1c0-31.8,10-56.9,29.8-75.3c19.8-18.5,46.6-27.8,80.3-27.8h8.3c7.8,0,14.6,2.7,20.5,8.1h-0.2
		c6,5.3,9,12,9,20v18c0,1.8-1.3,3.3-3.2,3.3l-27.6,0.2c-24.1,0-41.4,5.2-51.9,15.6c-9.8,9.8-14.8,21.8-15.3,35.6h70.3
		c11.6,0,17.3,5.8,17.1,17.6c0,29.8-9,53.9-26.8,72.3c-17.6,18-41.9,28.3-73,30.8h-7.8c-0.5,0-0.3-0.2-0.8-0.2h-0.7
		c-0.5,0-0.5,0.2-1,0.2l-7.1-0.3c-30.8-2.2-55-12.3-73-30.4c-17.8-18.1-26.8-42.2-26.8-72.3v-28.8c0-1.8,1.3-3.3,3.2-3.3h18.1
		c8,0,14.8,3,20.5,9.1c5.3,5.8,8,12.6,8,20.5l-0.2,1.5v1c0,14.3,4.7,26.4,13.8,36.2c8.6,9.8,25.1,15.1,45.2,17
		c22.8-1.8,39.4-8.3,48.9-20.8h-30.8c-13,0-24.1-4.7-33.3-13.8s-13.6-20.1-13.6-33.1V710.1z M177.9,870.6c0,1.8-1.5,3.3-3.3,3.3
		h-44.1c-1.8,0-3.2-1.5-3.2-3.3v-35.4c0-1.8,1.3-3.2,3.2-3.2h22.8c8.3,0,14.5,2.2,18.5,6.5c4.3,4.3,6.3,10.5,6.2,18.5V870.6z
		 M234.4,870.6c0,1.8-1.5,3.3-3.3,3.3h-43.9c-1.8,0-3.2-1.5-3.2-3.3v-35.4c0-1.8,1.3-3.2,3.2-3.2H210c8.5,0,14.6,2.2,18.6,6.7
		c3.8,4.2,6,10.1,5.8,18.3V870.6z"/>
	<path class="st0" d="M410.8,700.3l-0.2,9.3c-1.8,33.1-13.1,59.9-31.8,78.6c-18.1,16.8-41.9,26.1-69.8,26.1c-2.5,0-4.5,0-7-0.2
		c-1.2,0-1.8,0-3-1.2c-0.7-0.7-1-1.5-1-2.3l2.3-43.2c0-1.8,1.3-3,3.2-3c0.5,0,0.5,0.2,1,0.2c15,0.8,27.9-3.7,38.7-13.3
		c10.8-9.5,16.1-26.6,16.1-51v-70.7c0-1.8,1.5-3.2,3.3-3.2h44.9c1.8,0,3.2,1.3,3.2,3.2V700.3z"/>
	<path class="st0" d="M440.4,520.1c0-1.8,1.3-3.3,3.2-3.3h23.6c7.5,0,14,2.8,19.5,8.6c5.2,5.5,7.8,12.1,7.8,19.6v162.8h29.3
		c1.8,0,3.3,1.3,3.3,3.2v43.7c0,1.8-1.5,3.2-3.3,3.2h-43.2c-11.1,0-20.6-4-28.4-11.8c-7.8-8.1-11.6-17.6-11.6-28.4V520.1z"/>
	<path class="st0" d="M535.9,619.5c2-2.8,4.5-5.2,7-7.1l89.3-88.8c1.2-1.3,3.2-1.3,4.5,0l32.8,32.9c1.3,1.3,1.3,3.3,0,4.5
		l-53.9,53.7c19,6.8,33.9,18.1,45.1,33.6c12.1,16.8,18.1,37.4,18.1,62v0.7l-0.2,43.7c0,1.8-1.5,3.2-3.3,3.2H510.6
		c-1.8,0-3.3-1.3-3.3-3.2v-43.7c0-1.8,1.5-3.2,3.3-3.2h118.2c-0.7-13.8-5.8-25.8-15.5-35.6c-10.1-10.1-27.4-15.5-51.9-15.6H534
		c-1.8,0-3.3-1.5-3.3-3.3v-18c0-5.8,1.5-10.8,4.7-15.3L535.9,619.5z"/>
	<path class="st0" d="M821.9,707.8c-0.7-13.8-5.8-25.8-15.5-35.6c-10.6-10.6-27.8-15.5-51.9-15.6h-27.6c-1.8,0-3.2-1.5-3.2-3.3v-18
		c0-8,2.8-14.6,8.6-20.1s12.6-8.1,20.5-8.1h8.6c33.3,0,60.9,10.5,80.3,27.8c18.6,18.6,29.8,44.7,29.8,75.5v44.4
		c0,1.8-1.5,3.2-3.3,3.2H713c-1.8,0-3.2-1.3-3.2-3.2v-21.6c0-7.1,2.7-13.1,7.8-18c4.8-4.5,11-7,18.3-7.3H821.9z M787.6,586.6
		c0,2.2-1,3.2-3.2,3.2h-44.1c-1.8,0-3.3-1.3-3.3-3.2v-35.4c0-1.8,1.5-3.2,3.3-3.2h22.8c8,0,14.1,2.2,18.5,6.7
		c4.2,4.3,6.2,10.3,6,18.1V586.6z"/>
	<path class="st0" d="M944.4,481.2H959c1.8,0,3.2,1.5,3.2,3.3v16.6c0,1.8-1.3,3.2-3.2,3.2h-53.7c-1.8,0-3.3-1.3-3.3-3.2v-16.6
		c0-1.8,1.5-3.3,3.3-3.3h5.7v-10.6c0-10.3,5.2-15.5,15.6-15.5h12.8c6.5,0.8,11.6,3.3,15.5,7.5c3.8,4.2,6,7.8,6.8,11.3
		c0.5,2.2-1.2,3.7-3.2,3.7h-14.1V481.2z M956,516.7c1.8,0,3.2,1.5,3.2,3.3v209.3c0,7.6-2.7,14.3-7.8,19.8
		c-5.2,5.7-11.6,8.5-19.5,8.5h-23.8c-1.8,0-3.2-1.3-3.2-3.2V545c0-7.5,2.7-14.1,7.8-19.6c5.5-5.8,12-8.6,19.5-8.6H956z"/>
</g>
<g>
	<g id="A516_x2C__Book_x2C__Holy_x2C__Quran">
		<g>
			<g>
				<g>
					<path class="st0" d="M284,378.1l170.1,37.3V167.3l-117.7-24.5L284,378.1z M351.1,236.3c0.9-6.4,7.4-10,13.8-9.1l57.9,11.8
						c6.4,0.9,10.1,7.3,9.2,13.6c-0.9,5.4-5.5,9.1-11,9.1c-0.9,0-1.8,0-1.8,0L360.3,250C353.9,249.1,350.2,242.7,351.1,236.3z
						 M351.1,281.8c0.9-6.4,7.4-10,13.8-9.1l57.9,11.8c6.4,0.9,10.1,7.3,9.2,13.6c-0.9,5.4-5.5,9.1-11,9.1c-0.9,0-1.8,0-1.8,0
						l-58.8-11.8C353.9,294.5,350.2,288.1,351.1,281.8z M351.1,327.2c0.9-6.4,7.4-10,13.8-9.1l57.9,11.8c6.4,0.9,10.1,7.3,9.2,13.6
						c-0.9,5.4-5.5,9.1-11,9.1c-0.9,0-1.8,0-1.8,0l-58.8-11.8C353.9,339.9,350.2,333.6,351.1,327.2z"/>
					<path class="st0" d="M259.2,384.5l56.1-249.9l-17.5-3.6L227,433.6l227.1,44.5V439l-185.7-40.9
						C261.9,396.3,258.3,390.8,259.2,384.5z"/>
					<path class="st0" d="M594.8,143.6l-117.7,24.5v248.1L647.2,379L594.8,143.6z M571.8,340.9l-57.9,11.8c-0.9,0-1.8,0-1.8,0
						c-5.5,0-10.1-3.6-11-9.1c-0.9-6.4,2.8-11.8,9.2-13.6l57.9-11.8c6.4-0.9,12,2.7,13.8,9.1C581.9,333.6,578.2,339.9,571.8,340.9z
						 M571.8,295.4l-57.9,11.8c-0.9,0-1.8,0-1.8,0c-5.5,0-10.1-3.6-11-9.1c-0.9-6.4,2.8-11.8,9.2-13.6l57.9-11.8
						c6.4-0.9,12,2.7,13.8,9.1C581.9,288.1,578.2,294.5,571.8,295.4z M571.8,250l-57.9,11.8c-0.9,0-1.8,0-1.8,0
						c-5.5,0-10.1-3.6-11-9.1c-0.9-6.4,2.8-11.8,9.2-13.6l57.9-11.8c6.4-0.9,12,2.7,13.8,9.1C581.9,242.7,578.2,249.1,571.8,250z"/>
					<polygon class="st0" points="364,556.3 439.4,498.1 364,483.6 					"/>
					<polygon class="st0" points="568.1,556.3 568.1,483.6 492.7,498.1 					"/>
					<path class="st0" d="M634.3,130.9l-17.5,3.6l56.1,249.9c0.9,6.4-2.8,11.8-8.3,13.6L478,439v39.1l227.1-44.5L634.3,130.9z"/>
				</g>
			</g>
		</g>
	</g>
	<g id="Layer_1_15_">
	</g>
</g>
</svg>
