<?xml version="1.0" standalone="no"?>
<!DOCTYPE svg PUBLIC "-//W3C//DTD SVG 20010904//EN"
 "http://www.w3.org/TR/2001/REC-SVG-20010904/DTD/svg10.dtd">
<svg version="1.0" xmlns="http://www.w3.org/2000/svg"
 width="1024.000000pt" height="1024.000000pt" viewBox="0 0 1024.000000 1024.000000"
 preserveAspectRatio="xMidYMid meet">
<metadata>
Created by potrace 1.14, written by Peter Selinger 2001-2017
</metadata>
<g transform="translate(0.000000,1024.000000) scale(0.100000,-0.100000)"
fill="#000000" stroke="none">
<path d="M2095 8953 c-5 -21 -9 -40 -10 -43 -3 -12 -16 -67 -19 -85 -3 -11
-25 -105 -50 -210 -24 -104 -47 -201 -50 -215 -3 -14 -17 -74 -32 -135 -15
-60 -28 -117 -29 -125 -1 -8 -7 -33 -13 -55 -6 -22 -13 -51 -16 -65 -2 -14
-13 -63 -25 -110 -17 -73 -33 -142 -46 -200 -2 -8 -31 -132 -65 -275 -34 -143
-64 -271 -66 -285 -3 -14 -10 -43 -16 -65 -5 -22 -12 -51 -15 -65 -2 -14 -9
-43 -15 -65 -5 -22 -11 -47 -13 -55 -4 -21 -64 -280 -72 -310 -3 -14 -7 -29
-9 -35 -4 -18 -135 -578 -175 -750 -38 -166 -75 -321 -144 -615 -18 -80 -37
-161 -41 -180 -11 -49 -9 -44 -37 -160 -14 -58 -42 -172 -61 -255 -19 -82 -63
-267 -96 -410 -34 -143 -75 -318 -91 -390 -16 -71 -37 -156 -45 -189 -8 -32
-14 -59 -12 -61 3 -2 161 -34 208 -41 14 -2 57 -11 95 -19 61 -12 230 -45 305
-59 14 -2 59 -11 100 -20 41 -8 86 -17 100 -20 14 -3 50 -10 80 -16 30 -6 69
-13 85 -16 17 -2 37 -7 45 -9 8 -2 31 -7 50 -10 19 -3 100 -19 180 -35 80 -16
161 -32 180 -35 19 -3 87 -17 150 -30 63 -13 131 -26 150 -29 19 -3 78 -14
130 -25 52 -11 109 -22 125 -25 17 -3 109 -21 205 -40 96 -19 191 -38 210 -41
19 -3 53 -10 75 -15 22 -5 55 -12 74 -15 19 -3 101 -19 181 -35 80 -16 162
-32 181 -35 19 -3 52 -10 74 -15 33 -8 145 -30 325 -64 14 -2 75 -14 135 -26
61 -12 121 -24 135 -27 14 -2 126 -24 249 -49 124 -24 232 -44 241 -44 15 0
17 30 17 349 l0 350 -66 15 c-36 9 -77 18 -91 20 -14 2 -47 10 -75 16 -27 6
-57 13 -65 15 -49 11 -171 38 -275 61 -167 37 -306 67 -475 103 -80 18 -172
38 -205 46 -33 8 -71 17 -85 19 -14 3 -68 14 -120 26 -52 12 -106 24 -120 26
-14 3 -65 14 -115 25 -49 12 -97 22 -105 24 -8 2 -107 23 -220 48 -113 25
-225 50 -250 55 -25 5 -157 35 -295 65 -137 31 -261 58 -275 61 -14 3 -68 14
-120 26 -52 12 -133 30 -180 40 -245 53 -279 66 -323 123 -15 19 -32 56 -39
81 -12 46 -8 73 42 296 4 19 17 76 28 125 15 69 88 395 128 570 3 11 9 40 14
65 5 25 19 86 30 135 12 50 24 101 26 115 3 14 11 52 20 85 8 33 16 69 18 80
3 11 9 40 15 65 5 25 13 61 16 80 3 19 10 49 15 65 5 17 11 41 14 55 2 14 12
57 21 95 9 39 19 81 21 95 3 14 11 53 19 86 8 34 16 73 19 85 3 13 17 76 31
139 15 63 29 126 31 140 4 23 35 160 69 305 14 59 133 593 140 628 2 10 6 26
9 35 3 9 7 28 10 42 14 72 36 173 46 210 5 19 23 98 40 175 17 77 63 282 101
455 39 173 73 324 75 335 3 19 -9 23 -139 49 -78 16 -149 31 -158 34 -12 3
-19 -6 -24 -35z"/>
<path d="M7995 8958 c-77 -17 -143 -33 -147 -37 -6 -5 3 -55 37 -201 2 -8 11
-46 19 -85 9 -38 36 -160 61 -270 26 -110 48 -211 51 -225 3 -14 12 -54 20
-90 9 -36 18 -76 20 -90 4 -23 33 -149 69 -305 19 -80 64 -285 69 -310 3 -11
32 -144 66 -295 90 -399 91 -403 96 -430 3 -14 9 -41 14 -61 6 -20 14 -58 20
-85 5 -27 25 -119 45 -204 19 -85 37 -164 39 -175 3 -11 34 -153 71 -315 86
-378 127 -564 141 -630 3 -14 23 -101 44 -195 46 -204 80 -357 81 -367 1 -4 9
-40 20 -80 31 -121 20 -198 -39 -264 -22 -26 -85 -59 -127 -68 -29 -5 -569
-123 -610 -132 -11 -3 -29 -7 -40 -9 -11 -3 -103 -23 -205 -45 -102 -23 -196
-43 -210 -46 -14 -2 -72 -15 -130 -29 -58 -13 -116 -26 -130 -29 -14 -2 -68
-14 -120 -26 -52 -12 -106 -24 -120 -26 -14 -3 -45 -10 -70 -15 -25 -6 -56
-13 -70 -15 -14 -3 -63 -14 -110 -24 -47 -11 -96 -22 -110 -25 -21 -4 -185
-40 -230 -50 -8 -2 -69 -15 -135 -29 -156 -35 -256 -57 -275 -61 -8 -2 -60
-13 -115 -25 -55 -12 -107 -23 -115 -25 -71 -17 -210 -48 -230 -51 -14 -3 -86
-18 -159 -35 -74 -16 -135 -29 -136 -29 0 0 0 -157 0 -350 0 -305 2 -350 15
-350 13 0 53 7 185 33 82 17 101 20 110 22 19 5 190 37 210 41 11 1 90 17 175
34 85 16 166 32 180 35 14 3 36 7 50 10 60 13 178 36 210 41 19 3 43 7 52 10
10 3 30 7 45 10 16 3 73 14 128 25 55 11 112 22 126 24 31 6 310 61 614 121
127 25 241 48 255 50 14 3 59 12 100 20 41 9 86 17 100 19 14 2 93 17 175 34
83 17 166 33 185 36 19 3 53 10 75 15 22 5 56 12 75 15 19 3 134 26 255 50
121 24 234 46 250 49 28 5 102 20 150 30 11 2 40 7 65 12 25 4 47 8 50 9 3 1
25 5 50 10 25 5 47 9 50 10 3 0 35 7 73 14 37 7 69 16 71 20 2 3 -11 71 -30
151 -19 80 -36 154 -38 165 -3 11 -12 52 -21 90 -9 39 -19 81 -21 95 -3 14 -7
31 -9 38 -4 12 -102 425 -155 657 -15 66 -51 219 -80 340 -28 121 -54 229 -56
240 -2 11 -15 70 -30 130 -14 61 -27 117 -29 125 -3 17 -69 298 -120 510 -52
218 -96 412 -101 440 -3 14 -7 32 -10 40 -3 8 -8 26 -11 40 -2 14 -15 70 -28
125 -50 210 -77 321 -80 338 -2 10 -6 26 -9 35 -3 9 -7 28 -10 42 -4 26 -60
264 -145 625 -27 116 -54 230 -60 255 -5 25 -22 94 -37 154 -14 61 -28 121
-30 135 -3 14 -7 34 -10 43 -3 10 -7 29 -10 42 -4 24 -55 238 -101 426 -29
121 -31 131 -32 148 -1 16 -1 16 -166 -20z"/>
<path d="M2796 8761 c-4 -12 -130 -576 -172 -771 -4 -19 -9 -39 -10 -45 -29
-122 -67 -290 -74 -325 -5 -25 -32 -148 -60 -275 -29 -126 -53 -238 -55 -248
-2 -10 -6 -26 -9 -35 -3 -9 -8 -35 -12 -57 -3 -22 -8 -43 -10 -46 -2 -3 -17
-71 -34 -150 -17 -79 -33 -151 -35 -159 -22 -96 -74 -331 -106 -475 -22 -99
-44 -198 -49 -220 -28 -121 -52 -230 -51 -240 0 -2 -5 -19 -10 -37 -5 -18 -11
-44 -14 -58 -5 -27 -15 -69 -19 -85 -2 -5 -6 -28 -10 -50 -4 -22 -12 -53 -17
-70 -4 -16 -11 -45 -14 -62 -3 -18 -12 -63 -21 -100 -9 -38 -18 -79 -21 -93
-5 -27 -6 -31 -16 -70 -4 -14 -9 -36 -11 -50 -3 -14 -17 -77 -31 -140 -15 -63
-29 -124 -31 -135 -2 -11 -14 -64 -26 -118 -12 -53 -19 -99 -16 -102 5 -5 516
-120 669 -150 36 -8 84 -18 105 -24 21 -5 50 -12 64 -15 28 -5 483 -103 515
-111 11 -3 72 -16 135 -30 63 -14 142 -32 175 -40 33 -8 76 -17 95 -20 19 -3
60 -12 90 -20 30 -7 69 -16 85 -18 17 -3 48 -9 70 -15 22 -6 51 -13 65 -16 14
-2 102 -21 195 -41 94 -20 177 -38 185 -40 8 -2 110 -24 225 -49 249 -55 344
-76 366 -80 14 -3 16 197 16 2228 l0 2232 -116 24 c-64 13 -120 25 -126 26 -5
1 -77 16 -160 34 -82 17 -159 33 -170 36 -11 2 -40 8 -65 13 -43 9 -127 26
-345 71 -55 12 -107 23 -115 25 -26 6 -174 37 -200 41 -14 3 -97 20 -185 39
-137 29 -194 41 -340 71 -11 2 -33 7 -50 9 -16 3 -37 8 -45 10 -8 2 -26 6 -40
9 -14 2 -55 11 -92 19 -61 13 -68 13 -72 -2z m834 -1571 c168 -34 312 -64 320
-65 8 -2 106 -22 218 -45 231 -47 246 -51 285 -88 105 -99 78 -283 -49 -338
-49 -21 -110 -19 -249 9 -71 14 -141 28 -155 31 -14 2 -72 14 -130 26 -58 12
-116 24 -130 26 -14 3 -65 13 -115 24 -49 10 -106 22 -125 25 -19 3 -69 13
-110 21 -41 9 -84 18 -95 20 -109 21 -124 27 -162 62 -46 43 -65 84 -68 150
-5 99 56 177 160 203 43 11 65 7 405 -61z m-234 -770 c55 -11 113 -23 129 -26
17 -2 37 -7 45 -9 8 -2 26 -6 40 -9 14 -2 114 -22 223 -45 109 -23 211 -43
225 -46 15 -3 36 -7 47 -9 11 -3 77 -16 147 -31 150 -30 164 -35 200 -68 56
-52 82 -150 58 -221 -26 -79 -103 -135 -187 -136 -33 0 -164 22 -263 45 -19 4
-356 72 -390 79 -220 41 -490 100 -507 111 -60 40 -91 93 -97 166 -8 101 46
180 143 210 43 12 84 10 187 -11z m-66 -804 c14 -2 125 -25 248 -50 122 -25
233 -48 245 -50 12 -2 90 -18 172 -35 83 -18 164 -34 180 -37 17 -3 58 -11 93
-19 34 -8 77 -17 95 -20 49 -8 108 -55 133 -105 27 -54 27 -146 1 -197 -40
-76 -150 -118 -247 -93 -19 5 -48 11 -65 14 -16 2 -176 34 -355 70 -179 36
-336 67 -350 70 -14 2 -45 9 -70 15 -25 5 -61 13 -80 16 -19 3 -42 8 -50 10
-8 2 -30 7 -49 10 -97 17 -165 100 -165 205 -1 71 27 126 83 163 37 26 119 48
146 40 6 -1 21 -4 35 -7z"/>
<path d="M7355 8743 c-33 -7 -69 -15 -80 -17 -34 -8 -66 -15 -170 -36 -55 -11
-109 -22 -120 -24 -11 -3 -85 -18 -165 -35 -80 -16 -188 -39 -240 -51 -52 -11
-106 -22 -120 -25 -36 -6 -436 -90 -600 -125 -74 -16 -148 -31 -165 -34 -64
-12 -283 -58 -322 -68 -41 -10 -43 -13 -44 -47 0 -20 0 -1021 -1 -2226 0
-1590 3 -2190 11 -2193 6 -2 44 4 83 13 40 9 83 19 96 21 27 5 368 80 427 94
58 13 97 21 125 26 14 3 43 10 65 16 22 5 51 12 65 15 14 2 126 26 250 54 124
27 235 51 248 54 12 2 30 6 40 9 9 3 29 8 45 11 54 10 83 16 127 26 25 6 56
13 70 15 14 3 52 11 85 19 33 8 125 29 205 46 80 17 154 33 165 36 11 2 31 6
45 9 14 3 72 16 130 29 58 13 116 26 130 29 14 2 55 11 91 20 37 8 78 17 90
20 33 6 342 74 409 89 61 14 61 14 42 92 -7 28 -14 59 -16 70 -2 11 -21 94
-41 185 -20 91 -38 172 -40 180 -4 16 -32 143 -45 200 -4 19 -13 58 -19 85
-14 67 -41 186 -46 205 -2 8 -13 56 -23 105 -19 85 -49 222 -57 255 -70 313
-127 571 -131 590 -3 14 -18 82 -34 152 -16 70 -31 138 -34 152 -3 15 -7 34
-10 44 -3 9 -7 28 -10 42 -3 14 -7 35 -10 46 -5 24 -46 211 -51 234 -2 8 -35
159 -75 335 -39 176 -74 329 -76 340 -2 11 -20 92 -40 180 -20 88 -38 169 -40
180 -6 33 -11 54 -43 195 -17 74 -33 146 -36 160 -3 14 -7 34 -9 45 -16 68
-36 161 -36 167 0 9 -19 7 -95 -9z m-301 -1494 c55 -14 110 -59 137 -112 46
-90 -16 -237 -116 -275 -16 -6 -41 -14 -55 -16 -47 -9 -325 -65 -575 -116
-137 -29 -257 -53 -265 -55 -8 -2 -53 -11 -100 -21 -90 -18 -116 -20 -166 -11
-99 16 -172 122 -153 222 22 117 94 169 279 201 14 2 45 9 70 14 25 5 61 12
80 15 19 3 51 10 70 15 19 5 49 12 65 15 17 2 172 34 345 69 173 36 321 65
328 65 7 1 33 -4 56 -10z m21 -823 c77 -33 134 -103 135 -167 0 -59 -29 -126
-75 -172 -35 -35 -53 -45 -101 -55 -33 -6 -70 -13 -84 -16 -14 -3 -36 -8 -50
-11 -14 -3 -34 -7 -45 -9 -36 -8 -380 -78 -395 -81 -8 -2 -51 -11 -95 -20 -44
-9 -91 -19 -105 -21 -14 -3 -78 -16 -144 -29 -142 -30 -187 -31 -244 -5 -99
45 -139 153 -97 258 32 77 110 125 245 147 19 3 89 17 155 31 66 14 127 27
136 29 9 2 32 6 50 9 19 3 110 21 202 41 93 19 183 37 200 40 18 3 39 8 47 10
8 2 29 7 45 10 17 3 46 9 65 13 62 14 118 13 155 -2z m44 -840 c46 -29 91
-100 91 -142 0 -79 -49 -168 -110 -202 -28 -16 -331 -85 -515 -118 -16 -3 -50
-10 -75 -15 -25 -6 -56 -13 -70 -15 -14 -2 -54 -11 -90 -19 -36 -8 -81 -17
-100 -20 -19 -3 -53 -10 -75 -15 -22 -5 -56 -12 -75 -15 -19 -3 -51 -10 -70
-15 -53 -14 -136 -4 -176 20 -135 84 -123 285 21 355 40 19 211 60 385 91 25
5 160 32 190 39 8 2 35 8 60 13 25 6 63 13 85 16 22 4 48 9 57 12 9 3 25 6 35
8 10 2 68 14 128 26 61 12 126 25 145 29 49 10 112 -4 159 -33z"/>
<path d="M3299 2648 c-2 -5 -4 -1308 -2 -1308 2 0 979 753 1231 949 137 106
135 100 27 117 -22 3 -42 7 -45 9 -3 2 -22 6 -42 9 -21 3 -57 10 -80 15 -24 5
-59 12 -78 15 -19 3 -60 10 -90 16 -30 6 -66 13 -80 16 -14 2 -45 9 -70 14
-25 5 -58 12 -75 15 -30 5 -56 10 -105 20 -14 3 -43 8 -65 11 -22 3 -43 8 -46
9 -3 2 -28 7 -55 11 -27 3 -52 8 -55 10 -3 2 -21 6 -40 9 -66 11 -294 56 -311
61 -10 3 -19 4 -19 2z"/>
<path d="M6949 2646 c-2 -2 -22 -6 -44 -10 -22 -3 -51 -8 -65 -11 -14 -2 -48
-9 -76 -15 -28 -6 -64 -13 -80 -16 -16 -2 -51 -9 -79 -14 -27 -6 -61 -12 -75
-15 -14 -3 -70 -14 -125 -24 -55 -11 -111 -22 -125 -25 -14 -2 -63 -12 -110
-21 -47 -9 -98 -19 -115 -21 -16 -3 -46 -9 -65 -14 -19 -5 -55 -12 -80 -15
-25 -4 -88 -15 -140 -26 -52 -11 -108 -22 -125 -25 -16 -3 -31 -6 -32 -8 -2
-1 87 -72 198 -157 110 -85 210 -162 222 -171 12 -10 177 -137 367 -283 190
-147 354 -274 365 -283 32 -26 179 -138 192 -145 8 -5 11 155 11 648 0 360 -3
655 -7 655 -4 0 -10 -2 -12 -4z"/>
</g>
</svg>
